{"title":"The Hooligan Wars aka The Ice Cream Wars 2012.BRRip.XviD.Ac3.Fee","uid":8094193,"size":843833796,"categoryP":"video","categoryS":"movies","magnet":"?xt=urn:btih:715e0228b68cbd1a104fe277c11b986858860f0b&amp;dn=The+Hooligan+Wars+aka+The+Ice+Cream+Wars+2012.BRRip.XviD.Ac3.Fee&amp;tr=udp%3A%2F%2Ftracker.openbittorrent.com%3A80&amp;tr=udp%3A%2F%2Fopen.demonii.com%3A1337&amp;tr=udp%3A%2F%2Ftracker.coppersurfer.tk%3A6969&amp;tr=udp%3A%2F%2Fexodus.desync.com%3A6969","seeders":1,"leechers":2,"uploader":"neon","files":-1,"time":1359795677,"description":"novice football player is injured in a bar fight and is out of the next tournament. Jobless and with a pregnant girlfriend, he buys an ice cream van and starts his work. Soon a gang of Polish drug mafia starts irritating him. For protection he joins hands with a British mafia involved in football hooliganism. After many bloody fights, he is forced to work in drug dealing. Now rope is tightening for him as police is following his activities, so he decides to get out of this dangerous business before it is too late. Will he succeed in his goal?\n\nGenre:Crime\n Language:English\n IMDb: http://www.imdb.com/title/tt2354437/\n Source:Blu-ray Thanks\n Encoder:Tony\n \nFormat : AVI\n Format/Info : Audio Video Interleave\n File size : 804 MiB\n Duration : 1h 16mn\n Overall bit rate : 1 464 Kbps\n \nVideo\n ID : 0\n Format : MPEG-4 Visual\n Format profile : Advanced Simple@L5\n Format settings, BVOP : 1\n Format settings, QPel : No\n Format settings, GMC : No warppoints\n Format settings, Matrix : Default (H.263)\n Codec ID : XVID\n Codec ID/Hint : XviD\n Duration : 1h 16mn\n Bit rate : 1 070 Kbps\n Width : 640 pixels\n Height : 272 pixels\n Display aspect ratio : 2.35:1\n Frame rate : 25.000 fps\n Color space : YUV\n Chroma subsampling : 4:2:0\n Bit depth : 8 bits\n Scan type : Progressive\n Compression mode : Lossy\n Bits/(Pixel*Frame) : 0.246\n Stream size : 588 MiB (73%)\n Writing library : XviD 1.2.1 (UTC 2008-12-04)\n \nAudio\n ID : 1\n Format : AC-3\n Format/Info : Audio Coding 3\n Mode extension : CM (complete main)\n Codec ID : 2000\n Duration : 1h 16mn\n Bit rate mode : Constant\n Bit rate : 384 Kbps\n Channel(s) : 6 channels\n Channel positions : Front: L C R, Side: L R, LFE\n Sampling rate : 48.0 KHz\n Bit depth : 16 bits\n Compression mode : Lossy\n Stream size : 211 MiB (26%)\n Alignment : Aligned on interleaves\n Interleave, duration : 40 ms (1.00 video frame)\n Interleave, preload duration : 512 ms\n &lt;a href=&quot;\nhttp://www.shotpix.com/images/77626543493999138471.png&quot; rel=&quot;nofollow&quot; target=&quot;_NEW&quot;&gt;\nhttp://www.shotpix.com/images/77626543493999138471.png&lt;/a&gt; &lt;a href=&quot;\nhttp://www.shotpix.com/images/06634111978322815412.png&quot; rel=&quot;nofollow&quot; target=&quot;_NEW&quot;&gt;\nhttp://www.shotpix.com/images/06634111978322815412.png&lt;/a&gt; &lt;a href=&quot;\nhttp://www.shotpix.com/images/46985487424213602031.png&quot; rel=&quot;nofollow&quot; target=&quot;_NEW&quot;&gt;\nhttp://www.shotpix.com/images/46985487424213602031.png&lt;/a&gt;","torrent":{"xt":"urn:btih:715e0228b68cbd1a104fe277c11b986858860f0b","amp;dn":"The+Hooligan+Wars+aka+The+Ice+Cream+Wars+2012.BRRip.XviD.Ac3.Fee","amp;tr":["udp%3A%2F%2Ftracker.openbittorrent.com%3A80","udp%3A%2F%2Fopen.demonii.com%3A1337","udp%3A%2F%2Ftracker.coppersurfer.tk%3A6969","udp%3A%2F%2Fexodus.desync.com%3A6969"],"infoHash":"715e0228b68cbd1a104fe277c11b986858860f0b","infoHashBuffer":{"type":"Buffer","data":[113,94,2,40,182,140,189,26,16,79,226,119,193,27,152,104,88,134,15,11]},"announce":[],"urlList":[]}}